<svg id="Layer_1" data-name="Layer 1" xmlns="http://www.w3.org/2000/svg" xmlns:xlink="http://www.w3.org/1999/xlink" viewBox="0 0 324.46 91.31"><defs><style>.cls-1{fill:url(#linear-gradient);}.cls-2{fill:url(#linear-gradient-2);}.cls-3{fill:url(#linear-gradient-3);}.cls-4{fill:url(#linear-gradient-4);}.cls-5{fill:url(#linear-gradient-5);}.cls-6{fill:url(#linear-gradient-6);}.cls-7{fill:url(#linear-gradient-7);}.cls-8{fill:url(#linear-gradient-8);}.cls-9{fill:url(#linear-gradient-9);}.cls-10{fill:url(#linear-gradient-10);}.cls-11{fill:#494849;}</style><linearGradient id="linear-gradient" x1="43.51" y1="-8.68" x2="5.04" y2="41.93" gradientUnits="userSpaceOnUse"><stop offset="0.17" stop-color="#f7921e"/><stop offset="0.18" stop-color="#f7901e"/><stop offset="0.39" stop-color="#f36721"/><stop offset="0.58" stop-color="#f04a22"/><stop offset="0.74" stop-color="#ef3724"/><stop offset="0.86" stop-color="#ee3124"/></linearGradient><linearGradient id="linear-gradient-2" x1="111.87" y1="-7.31" x2="36.29" y2="104.04" gradientUnits="userSpaceOnUse"><stop offset="0" stop-color="#64cbe8"/><stop offset="0.43" stop-color="#00b5d1"/><stop offset="0.98" stop-color="#003a5d"/></linearGradient><linearGradient id="linear-gradient-3" x1="31.41" y1="113.06" x2="86.07" y2="13.85" gradientUnits="userSpaceOnUse"><stop offset="0.33" stop-color="#fff200"/><stop offset="0.37" stop-color="#efec08"/><stop offset="0.5" stop-color="#c8dd1d"/><stop offset="0.63" stop-color="#a9d22c"/><stop offset="0.75" stop-color="#94ca38"/><stop offset="0.87" stop-color="#86c53f"/><stop offset="0.98" stop-color="#82c341"/></linearGradient><linearGradient id="linear-gradient-4" x1="44.37" y1="-8.03" x2="5.9" y2="42.59" xlink:href="#linear-gradient"/><linearGradient id="linear-gradient-5" x1="60.73" y1="4.41" x2="22.26" y2="55.03" xlink:href="#linear-gradient"/><linearGradient id="linear-gradient-6" x1="14.79" y1="103.9" x2="69.45" y2="4.7" xlink:href="#linear-gradient-3"/><linearGradient id="linear-gradient-7" x1="30.34" y1="106.3" x2="65.34" y2="32.66" gradientUnits="userSpaceOnUse"><stop offset="0.34" stop-color="#ffcb05"/><stop offset="0.65" stop-color="#b0d235"/><stop offset="0.98" stop-color="#82c341"/></linearGradient><linearGradient id="linear-gradient-8" x1="30.26" y1="106.54" x2="65.34" y2="32.71" xlink:href="#linear-gradient-7"/><linearGradient id="linear-gradient-9" x1="19.56" y1="106.55" x2="74.23" y2="7.33" xlink:href="#linear-gradient-3"/><linearGradient id="linear-gradient-10" x1="115.87" y1="-4.59" x2="40.29" y2="106.76" xlink:href="#linear-gradient-2"/></defs><title>sydney-logo-colour</title><path class="cls-1" d="M27.86,49.33c2.92-16.14,11.2-34.9,22.66-44.86H5.07C16.51,12.61,26.23,29.19,27.86,49.33Z" transform="translate(0 0)"/><path class="cls-2" d="M77,18.2a139.72,139.72,0,0,1,8.23,14,98.09,98.09,0,0,1,6.46,16.19S106.39,13.66,116.76,0C88,8.39,77,18.2,77,18.2Z" transform="translate(0 0)"/><path class="cls-3" d="M70.81,23.57C54.6,38.41,43,54,36,67.27a211.77,211.77,0,0,1,31.31,18.3C66.66,80.23,62.78,47.37,70.81,23.57Z" transform="translate(0 0)"/><path class="cls-4" d="M0,4.47V54.81A159.36,159.36,0,0,1,25.49,62.7C26.41,37.66,18.12,15.69,0,4.47Z" transform="translate(0 0)"/><path class="cls-5" d="M30.62,49.75c4.43-9.6,18-29.65,33.74-39.88a41.39,41.39,0,0,0-9.12-5.4C36.24,18,30.62,49.75,30.62,49.75Z" transform="translate(0 0)"/><path class="cls-6" d="M28.11,63.78c.29.12,3.83,1.65,5.29,2.31,2.55-5.42,15.26-27.2,39.37-47.9a55.44,55.44,0,0,0-6.14-6.45C37.18,31.93,28.11,63.78,28.11,63.78Z" transform="translate(0 0)"/><path class="cls-7" d="M73.71,15.07Z" transform="translate(0 0)"/><path class="cls-8" d="M73.71,15.07Z" transform="translate(0 0)"/><path class="cls-9" d="M68.91,10.18c.63.61,3.4,3.28,4.8,4.89,0,0,0,0,0,0a48.38,48.38,0,0,1,5.05-9.82A57.73,57.73,0,0,0,68.91,10.18Z" transform="translate(0 0)"/><path class="cls-10" d="M74.58,20s-9.94,26.41-4.23,67.4c2.24,1.67,5,3.89,5,3.89S84.15,65.93,89.78,53C88.22,46.58,84.77,35.28,74.58,20Z" transform="translate(0 0)"/><path class="cls-11" d="M117.33,62c-3.71,0-7-.4-10-3.39l3.85-3.85A8.47,8.47,0,0,0,117.42,57c2,0,4.16-.68,4.16-2.44,0-1.18-.58-2-2.49-2.17L115.3,52c-4.16-.41-6.79-2.27-6.79-6.61,0-4.93,4.3-7.51,9.09-7.51,3.71,0,6.74.68,9,2.76L123,44.3a8.11,8.11,0,0,0-5.47-1.59c-2.35,0-3.35,1.09-3.35,2.26s.68,1.86,2.45,2l3.71.36c4.66.46,7,2.9,7,6.92C127.33,59.49,122.89,62,117.33,62Z" transform="translate(0 0)"/><path class="cls-11" d="M140.29,65.51a8.31,8.31,0,0,1-1.77,3,6.8,6.8,0,0,1-5.06,1.81h-2.31V65.06h1.36c1.67,0,2.35-.41,2.94-2.13l1-2.89-8.05-21.9h6.2l4.88,14.57,4.7-14.57h6.2Z" transform="translate(0 0)"/><path class="cls-11" d="M165.39,61.71V59.49A7.08,7.08,0,0,1,159.55,62a8,8,0,0,1-5.74-2.12c-2.26-2.31-2.44-6-2.44-10s.18-7.6,2.44-9.91a7.8,7.8,0,0,1,5.7-2.13,7.09,7.09,0,0,1,5.74,2.35V29.51h5.88v32.2Zm-4.17-18.54c-3.53,0-4,2.94-4,6.74s.45,6.78,4,6.78,4-3,4-6.78S164.75,43.17,161.22,43.17Z" transform="translate(0 0)"/><path class="cls-11" d="M189.09,61.71V47.46c0-3.21-2-4.29-3.89-4.29s-3.93,1.08-3.93,4.29V61.71h-5.88V38.14h5.74v2.18A8.07,8.07,0,0,1,187,37.87,7.64,7.64,0,0,1,192.58,40,8.75,8.75,0,0,1,195,46.65V61.71Z" transform="translate(0 0)"/><path class="cls-11" d="M204.36,51.76c0,3.08,1.81,5.25,5.15,5.25a6.67,6.67,0,0,0,5.34-2.22l3.57,3.48A11.07,11.07,0,0,1,209.47,62c-5.56,0-10.9-2.53-10.9-12.07,0-7.69,4.16-12,10.26-12,6.56,0,10.27,4.71,10.27,11.4v2.49Zm8.41-6.56a4.39,4.39,0,0,0-7.87,0,5.66,5.66,0,0,0-.54,2.53h8.95A5.79,5.79,0,0,0,212.77,45.2Z" transform="translate(0 0)"/><path class="cls-11" d="M231.55,65.51a8.44,8.44,0,0,1-1.76,3,6.81,6.81,0,0,1-5.07,1.81h-2.31V65.06h1.36c1.67,0,2.35-.41,2.94-2.13l1-2.89-8-21.9h6.2l4.89,14.57,4.7-14.57h6.19Z" transform="translate(0 0)"/><path class="cls-11" d="M239,61.71V55h6.74v6.69Z" transform="translate(0 0)"/><path class="cls-11" d="M258.59,62c-4.7,0-10.53-2.53-10.53-12.07s5.83-12,10.53-12A10,10,0,0,1,266.37,41l-4,4a4.75,4.75,0,0,0-3.8-1.85,4.06,4.06,0,0,0-3.34,1.53c-.91,1.13-1.31,2.72-1.31,5.21s.4,4.11,1.31,5.24a4.07,4.07,0,0,0,3.34,1.54,4.75,4.75,0,0,0,3.8-1.85l4,3.93A10.07,10.07,0,0,1,258.59,62Z" transform="translate(0 0)"/><path class="cls-11" d="M285,59.09a10.68,10.68,0,0,1-14.61,0c-2.12-2.26-2.66-4.93-2.66-9.18s.54-6.88,2.66-9.14a10.65,10.65,0,0,1,14.61,0c2.13,2.26,2.67,4.88,2.67,9.14S287.15,56.87,285,59.09Zm-4.57-14.88a4.12,4.12,0,0,0-5.47,0c-1.22,1.17-1.36,3.3-1.36,5.7s.14,4.56,1.36,5.74a4.12,4.12,0,0,0,5.47,0c1.23-1.18,1.36-3.3,1.36-5.74S281.64,45.38,280.41,44.21Z" transform="translate(0 0)"/><path class="cls-11" d="M318.58,61.71V47.46c0-3.21-2-4.29-3.88-4.29a3.79,3.79,0,0,0-3.94,4.16V61.71h-5.88V47.46c0-3.21-2-4.29-3.89-4.29s-3.93,1.08-3.93,4.29V61.71h-5.89V38.14h5.75v2.18a8.23,8.23,0,0,1,5.88-2.45,7.29,7.29,0,0,1,6.24,3,9,9,0,0,1,7.06-3A8.19,8.19,0,0,1,321.89,40a8.9,8.9,0,0,1,2.57,6.69V61.71Z" transform="translate(0 0)"/></svg>